<svg width="20" height="12" viewBox="0 0 30 19" fill="none" xmlns="http://www.w3.org/2000/svg">
<path d="M29.5205 2.36711L28.5378 1.41057C28.2285 1.11185 27.8171 0.947275 27.3773 0.947275C26.9378 0.947275 26.5258 1.11185 26.2166 1.41057L15.0067 12.2472L3.78393 1.39855C3.47515 1.09982 3.0632 0.935486 2.62368 0.935486C2.18416 0.935486 1.77197 1.09982 1.46294 1.39855L0.480004 2.34919C-0.160001 2.96739 -0.160001 3.97438 0.480004 4.59258L13.8421 17.5557C14.1508 17.8542 14.5623 18.0645 15.0057 18.0645H15.0109C15.4506 18.0645 15.8621 17.8539 16.1709 17.5557L29.5205 4.62771C29.8298 4.32922 29.9995 3.91945 30 3.49458C30 3.06948 29.8298 2.66536 29.5205 2.36711Z" fill="white"/>
</svg>
