<svg width="50" height="50" viewBox="0 0 50 50" fill="none" xmlns="http://www.w3.org/2000/svg">
<path d="M25 3.125C24.2126 3.125 23.4436 3.41187 22.8516 4.00391L18.457 8.44727C18.219 8.57544 18.0176 8.75855 17.8711 8.98438L4.00391 22.8516C2.81982 24.0295 2.81982 25.9644 4.00391 27.1484L22.8516 45.9961C24.0356 47.1741 25.9644 47.1741 27.1484 45.9961L45.9961 27.1484C47.1802 25.9705 47.1802 24.0356 45.9961 22.8516L27.1484 4.00391C26.5564 3.41187 25.7874 3.125 25 3.125ZM25 6.29883L43.7012 25L25 43.7012L6.29883 25L19.2383 12.0605L21.9727 14.7949C21.8994 15.0574 21.875 15.3381 21.875 15.625C21.875 16.7786 22.5037 17.7673 23.4375 18.3105V31.6895C22.5037 32.2327 21.875 33.2214 21.875 34.375C21.875 36.1023 23.2727 37.5 25 37.5C26.7273 37.5 28.125 36.1023 28.125 34.375C28.125 33.2214 27.4963 32.2327 26.5625 31.6895V19.4336L31.3477 24.2188C31.2805 24.469 31.25 24.7314 31.25 25C31.25 26.7273 32.6477 28.125 34.375 28.125C36.1023 28.125 37.5 26.7273 37.5 25C37.5 23.2727 36.1023 21.875 34.375 21.875C34.1064 21.875 33.844 21.9055 33.5938 21.9727L28.0273 16.4062C28.0945 16.156 28.125 15.8936 28.125 15.625C28.125 13.8977 26.7273 12.5 25 12.5C24.7131 12.5 24.4324 12.5244 24.1699 12.5977L21.4355 9.86328L25 6.29883Z" fill="#23D997"/>
</svg>
