<svg width="40" height="40" viewBox="0 0 40 40" fill="none" xmlns="http://www.w3.org/2000/svg">
<path d="M40 20.1355C40 29.712 33.3543 37.7105 24.4543 39.751V23.0244H29.2605V17.439H24.4058V16.1923C24.4058 13.7984 25.4463 11.8526 27.9222 11.8526C28.9143 11.8526 29.7075 12.003 30.3524 12.2021L30.6482 6.36679C29.6076 6.06803 28.3226 5.86695 26.6372 5.86695C24.4581 5.86695 21.831 6.51809 19.9496 8.31255C17.7686 10.3081 16.8773 13.5494 16.8773 16.491V17.4381H13.7062V23.0235H16.8764V40C7.31821 38.488 0 30.1831 0 20.1355C0 9.01539 8.95515 7.6272e-08 20.001 7.6272e-08C31.0467 -0.00095748 40 9.01444 40 20.1355Z" fill="black"/>
</svg>
