<svg width="50" height="50" viewBox="0 0 50 50" fill="none" xmlns="http://www.w3.org/2000/svg">
<path fill-rule="evenodd" clip-rule="evenodd" d="M25 5C13.9518 5 5 14.178 5 25.5052C5 34.563 10.7292 42.2525 18.6784 44.9625C19.681 45.1494 20.0456 44.5219 20.0456 43.9746C20.0456 43.4873 20.026 42.1991 20.0195 40.4903C14.4531 41.7252 13.2812 37.7403 13.2812 37.7403C12.3698 35.3707 11.0612 34.7366 11.0612 34.7366C9.24479 33.4683 11.1979 33.495 11.1979 33.495C13.2031 33.6419 14.2578 35.6043 14.2578 35.6043C16.0417 38.7415 18.9388 37.8337 20.0781 37.3131C20.2604 35.9848 20.7812 35.0837 21.3477 34.5697C16.9076 34.0557 12.2396 32.2936 12.2396 24.4372C12.2396 22.1945 13.0208 20.3656 14.2969 18.9305C14.0951 18.4165 13.4049 16.3273 14.4922 13.5038C14.4922 13.5038 16.1719 12.9565 19.9935 15.6064C21.5885 15.1525 23.3008 14.9255 25 14.9189C26.6992 14.9255 28.4115 15.1525 30.0065 15.6064C33.8281 12.9565 35.5013 13.5038 35.5013 13.5038C36.5951 16.3273 35.9115 18.4165 35.7031 18.9305C36.9857 20.3656 37.7539 22.1945 37.7539 24.4372C37.7539 32.3136 33.0794 34.0424 28.6263 34.5564C29.3424 35.1838 29.9805 36.4387 29.9805 38.3477C29.9805 41.0911 29.9609 43.3004 29.9609 43.9746C29.9609 44.5219 30.319 45.1627 31.3346 44.9625C39.2773 42.2458 45 34.563 45 25.5052C45 14.178 36.0482 5 25 5Z" fill="#23D997"/>
</svg>
