<svg width="48" height="48" viewBox="0 0 48 48" fill="none" xmlns="http://www.w3.org/2000/svg">
<g filter="url(#filter0_d)">
<circle cx="24" cy="20" r="20" fill="black"/>
<path d="M15.0879 17.1738C15.9788 16.1406 17.1056 15.624 18.4683 15.624C21.0588 15.624 22.3727 17.1027 22.4102 20.0601V28H19.6812V20.1611C19.6812 19.3226 19.4977 18.7311 19.1309 18.3867C18.7715 18.0348 18.2399 17.8589 17.5361 17.8589C16.443 17.8589 15.627 18.3455 15.0879 19.3188V28H12.3589V10.75H15.0879V17.1738ZM27.8682 17.1738C28.7591 16.1406 29.8859 15.624 31.2485 15.624C33.839 15.624 35.153 17.1027 35.1904 20.0601V28H32.4614V20.1611C32.4614 19.3226 32.278 18.7311 31.9111 18.3867C31.5518 18.0348 31.0202 17.8589 30.3164 17.8589C29.2233 17.8589 28.4072 18.3455 27.8682 19.3188V28H25.1392V10.75H27.8682V17.1738Z" fill="white"/>
</g>
<defs>
<filter id="filter0_d" x="0" y="0" width="48" height="48" filterUnits="userSpaceOnUse" color-interpolation-filters="sRGB">
<feFlood flood-opacity="0" result="BackgroundImageFix"/>
<feColorMatrix in="SourceAlpha" type="matrix" values="0 0 0 0 0 0 0 0 0 0 0 0 0 0 0 0 0 0 127 0"/>
<feOffset dy="4"/>
<feGaussianBlur stdDeviation="2"/>
<feColorMatrix type="matrix" values="0 0 0 0 0 0 0 0 0 0 0 0 0 0 0 0 0 0 0.25 0"/>
<feBlend mode="normal" in2="BackgroundImageFix" result="effect1_dropShadow"/>
<feBlend mode="normal" in="SourceGraphic" in2="effect1_dropShadow" result="shape"/>
</filter>
</defs>
</svg>
