<svg width="48" height="48" viewBox="0 0 48 48" fill="none" xmlns="http://www.w3.org/2000/svg">
<path d="M1 5L6.6087 8.8V27.8L1 24V5Z" fill="#23D997"/>
<path d="M44 19.25L38.3913 23.05V35.4L44 31.6V19.25Z" fill="#23D997"/>
<path d="M44 5.95L38.3913 9.75V16.4L44 12.6V5.95Z" fill="#23D997"/>
<path d="M32.7826 5L27.1739 8.8V27.8L32.7826 24V5Z" fill="#23D997"/>
<path d="M1 11.65L16.8913 22.1V15.45L1 5V11.65Z" fill="#23D997"/>
<path d="M32.7826 11.65L16.8913 22.1V15.45L32.7826 5V11.65Z" fill="#23D997"/>
<path d="M32.7826 24.95L16.8913 35.4V28.75L32.7826 18.3V24.95Z" fill="#23D997"/>
<path d="M44 32.55L28.1087 43V36.35L44 25.9V32.55Z" fill="#23D997"/>
<path d="M28.1087 36.1267L16.8913 28.75V35.4L28.1087 42.7767V36.1267Z" fill="#23D997"/>
</svg>
