<svg width="50" height="50" viewBox="0 0 50 50" fill="none" xmlns="http://www.w3.org/2000/svg">
<g clip-path="url(#clip0)">
<path d="M34.3561 9.375C34.1029 9.375 33.871 9.57153 33.871 9.84497V18.4326L31.8611 17.2974C31.7353 17.2255 31.5935 17.1906 31.4516 17.1906C31.3097 17.1906 31.1679 17.2255 31.0421 17.2974L26.2128 20.0256C25.9612 20.1663 25.8065 20.4265 25.8065 20.7062V26.1688C25.8065 26.4501 25.9612 26.7087 26.2128 26.8494L31.0421 29.5776C31.1679 29.6495 31.3097 29.6844 31.4516 29.6844C31.5935 29.6844 31.7353 29.6495 31.8611 29.5776L36.6904 26.8494C36.942 26.7087 37.0968 26.4485 37.0968 26.1688V23.4375V20.7062V11.2976C37.0968 11.0195 36.9435 10.7638 36.6967 10.6232L34.5955 9.43909C34.5165 9.39534 34.4367 9.375 34.3561 9.375ZM18.5484 17.1906C18.4069 17.1906 18.2655 17.2263 18.1389 17.2974L13.3096 20.0256C13.058 20.1663 12.9032 20.4265 12.9032 20.7062V26.1688C12.9032 26.4501 13.058 26.7087 13.3096 26.8494L18.1389 29.5776C18.3921 29.7198 18.7047 29.7198 18.9579 29.5776L23.7872 26.8494C24.0388 26.7087 24.1935 26.4485 24.1935 26.1688V20.7062C24.1935 20.4249 24.0388 20.1663 23.7872 20.0256L18.9579 17.2974C18.8313 17.2263 18.6899 17.1906 18.5484 17.1906ZM44.3548 17.1906C44.2129 17.1906 44.0711 17.2255 43.9453 17.2974L39.1161 20.0256C38.8644 20.1663 38.7097 20.4265 38.7097 20.7062V26.1688C38.7097 26.4501 38.8644 26.7087 39.1161 26.8494L43.8004 29.5929C44.052 29.7413 44.3678 29.7427 44.6226 29.599L46.9254 28.302C47.1641 28.1692 47.1657 27.8337 46.9254 27.6978L41.9355 24.8505V22.0459L44.3548 20.6818L46.7742 22.0459V23.999C46.7742 24.26 47.0006 24.3001 47.1522 24.2126C47.7619 23.8658 49.5999 22.8333 49.5999 22.8333C49.8467 22.6942 50 22.4369 50 22.1588V20.7062C50 20.4249 49.8452 20.1663 49.5936 20.0256L44.7644 17.2974C44.6369 17.2255 44.4968 17.1906 44.3548 17.1906ZM5.64516 17.1936C5.50323 17.1936 5.36144 17.2285 5.23564 17.3004L0.406376 20.0256C0.154763 20.1678 0 20.428 0 20.7092V27.6825C0 28.0231 0.380368 28.2343 0.683594 28.064L2.82573 26.8555C3.07251 26.7148 3.22581 26.4592 3.22581 26.181V22.052L5.64516 20.6848L8.06452 22.052V26.181C8.06452 26.4592 8.21782 26.7148 8.46459 26.8555L10.6067 28.064C10.91 28.2358 11.2903 28.0231 11.2903 27.6825V20.7092C11.2903 20.428 11.1356 20.1678 10.8839 20.0256L6.05469 17.3004C5.92888 17.2285 5.7871 17.1936 5.64516 17.1936ZM31.4516 20.6818L33.871 22.049V23.4375V24.826L31.4516 26.1932L29.0323 24.826V22.049L31.4516 20.6818ZM44.3548 21.8811L42.9719 22.6624V24.2218L44.3548 25L45.7378 24.2218V22.6624L44.3548 21.8811ZM24.8488 28.1219C24.6829 28.1219 24.5151 28.1613 24.37 28.241L19.8337 30.78C19.5353 30.9394 19.3548 31.253 19.3548 31.5796V36.6516C19.3548 36.9782 19.5433 37.2855 19.8337 37.4512L21.0276 38.1104C21.6002 38.3838 21.8106 38.385 22.0703 38.385C22.9252 38.385 23.4123 37.8898 23.4123 37.0148V32.0038C23.4123 31.9272 23.351 31.8726 23.28 31.8726H22.7067C22.6276 31.8726 22.5712 31.935 22.5712 32.0038V37.0148C22.5712 37.3945 22.157 37.7838 21.4812 37.4573L20.24 36.7645C20.1997 36.7411 20.1707 36.6939 20.1707 36.6486V31.5765C20.1707 31.5312 20.1933 31.4779 20.24 31.4545L24.7763 28.9215C24.8247 28.8981 24.8794 28.8981 24.9181 28.9215L29.4575 31.4545C29.5043 31.4779 29.5268 31.5234 29.5268 31.5765V36.6486C29.5268 36.7017 29.4962 36.7472 29.4575 36.7706L24.9181 39.3127C24.8778 39.3362 24.815 39.3362 24.7763 39.3127L23.6171 38.6444C23.5864 38.6288 23.5374 38.6196 23.5068 38.6353C23.1858 38.8181 23.1216 38.842 22.8232 38.9404C22.7442 38.9639 22.6367 39.0108 22.8642 39.1327L24.37 39.9994C24.52 40.076 24.6843 40.1215 24.8488 40.1215C25.0214 40.1215 25.1891 40.0761 25.3213 39.9933L29.8576 37.4512C30.156 37.2918 30.3364 36.9782 30.3364 36.6516V31.5796C30.3364 31.253 30.1479 30.9472 29.8576 30.78L25.3213 28.241C25.1802 28.1613 25.0147 28.1219 24.8488 28.1219ZM31.9241 30.4626C31.4612 30.4626 31.0547 30.8252 31.0547 31.3049C31.0547 31.769 31.4451 32.1503 31.9241 32.1503C32.4032 32.1503 32.7936 31.769 32.7936 31.3049C32.7936 30.8252 32.3951 30.4548 31.9241 30.4626ZM31.9147 30.5969C32.3244 30.5969 32.655 30.9096 32.655 31.3049C32.655 31.6924 32.3228 32.0127 31.9147 32.0221C31.5131 32.0221 31.187 31.7002 31.187 31.3049C31.187 30.9096 31.5147 30.5969 31.9147 30.5969ZM31.5965 30.8258V31.7749H31.7824V31.3965H31.9556C32.0266 31.3965 32.0435 31.4258 32.0596 31.4789C32.0596 31.4867 32.0893 31.7326 32.0974 31.778H32.299C32.2764 31.7326 32.2598 31.6028 32.2518 31.5247C32.2292 31.4028 32.2218 31.3188 32.088 31.311C32.1589 31.2876 32.277 31.251 32.277 31.076C32.277 30.8245 32.0513 30.8258 31.9336 30.8258H31.5965ZM31.7824 30.9784H31.9399C31.9883 30.9784 32.0817 30.9769 32.0817 31.1066C32.0817 31.1597 32.0579 31.2455 31.9304 31.2439H31.7824V30.9784ZM26.0648 31.7535C24.7696 31.7535 24.0014 32.2883 24.0014 33.1696C24.0014 34.1352 24.7709 34.3935 26.0112 34.5154C27.4951 34.6591 27.6115 34.8658 27.6115 35.1471C27.6115 35.6408 27.2024 35.8459 26.2443 35.8459C25.0427 35.8459 24.7784 35.5574 24.6913 34.9792C24.6832 34.9183 24.6268 34.8724 24.5558 34.8724H23.9667C23.8958 34.8724 23.8344 34.9271 23.8344 35.0037C23.8344 35.7412 24.2494 36.6241 26.2349 36.6241C27.6913 36.6226 28.5156 36.076 28.5156 35.1166C28.5156 34.1666 27.8553 33.9139 26.4585 33.7311C25.0456 33.5483 24.9055 33.4563 24.9055 33.136C24.9055 32.8704 25.0212 32.5226 26.0648 32.5226C26.9986 32.5226 27.3467 32.7204 27.4887 33.3282C27.5048 33.3892 27.5486 33.4259 27.6115 33.4259H28.2006C28.2393 33.4259 28.2725 33.4112 28.2951 33.3893C28.3193 33.3596 28.3347 33.3291 28.3266 33.2916C28.2331 32.2416 27.518 31.7535 26.0648 31.7535Z" fill="#23D997"/>
</g>
<defs>
<clipPath id="clip0">
<rect width="50" height="50" fill="white"/>
</clipPath>
</defs>
</svg>
