<svg width="50" height="50" viewBox="0 0 50 50" fill="none" xmlns="http://www.w3.org/2000/svg">
<path fill-rule="evenodd" clip-rule="evenodd" d="M34.5409 3.98437C33.7615 3.95817 32.9457 4.09405 32.1278 4.35923C30.492 4.88959 28.7778 5.92314 27.0187 7.35417C26.3293 7.91499 25.6336 8.55606 24.9356 9.23625C24.2529 8.57333 23.5716 7.94947 22.8974 7.40102C21.1396 5.97114 19.4301 4.9372 17.798 4.40804C16.1659 3.87888 14.5419 3.86248 13.2081 4.63256C11.8744 5.40264 11.0768 6.81626 10.719 8.49435C10.3611 10.1724 10.4006 12.1708 10.7599 14.4081C10.8848 15.1852 11.0628 16.0004 11.2656 16.831C10.5035 17.062 9.76338 17.3048 9.07707 17.5729C7.00585 18.3819 5.29205 19.3497 4.04405 20.5014C2.79605 21.6531 1.99023 23.0509 1.99023 24.5858C1.99023 26.1207 2.79605 27.5165 4.04405 28.6682C5.29205 29.8199 7.00585 30.7897 9.07707 31.5987C9.81093 31.8854 10.6055 32.1435 11.4257 32.3875C11.1307 33.4899 10.8916 34.5597 10.7287 35.5737C10.369 37.8128 10.331 39.8114 10.6897 41.4933C11.0483 43.1752 11.8463 44.5969 13.1867 45.3707C14.527 46.1446 16.1582 46.1256 17.7941 45.5953C19.4299 45.0649 21.1421 44.0333 22.9013 42.6023C23.5843 42.0466 24.2753 41.4128 24.9668 40.7397C25.6619 41.4168 26.3557 42.0536 27.0421 42.612C28.7998 44.0419 30.5113 45.0739 32.1434 45.6031C33.7756 46.1322 35.3995 46.1486 36.7333 45.3786C38.0671 44.6085 38.8627 43.1949 39.2205 41.5168C39.5783 39.8387 39.5389 37.8422 39.1795 35.605C39.0162 34.5882 38.777 33.5148 38.4806 32.409C39.3279 32.159 40.1475 31.8939 40.9034 31.5987C42.9746 30.7897 44.6884 29.8199 45.9364 28.6682C47.1844 27.5165 47.9902 26.1207 47.9902 24.5858C47.9902 23.0509 47.1844 21.6531 45.9364 20.5014C44.6884 19.3497 42.9746 18.3819 40.9034 17.5729C40.2072 17.301 39.4558 17.0549 38.6817 16.8212C38.8861 15.9856 39.0676 15.1645 39.1932 14.3827C39.5529 12.1437 39.5909 10.1431 39.2322 8.46116C38.8736 6.77926 38.0737 5.35959 36.7333 4.5857C36.0631 4.19876 35.3202 4.01058 34.5409 3.98437ZM34.4491 6.01874C34.9382 6.03212 35.3554 6.1485 35.7122 6.35455C36.426 6.76665 36.9536 7.56871 37.235 8.88873C37.5165 10.2088 37.5068 11.9922 37.1745 14.0606C37.0608 14.7687 36.8956 15.5192 36.7079 16.2882C34.6633 15.7961 32.4228 15.431 30.035 15.2164C28.8362 13.5556 27.6045 12.0427 26.3627 10.7005C27.0196 10.0593 27.6722 9.45961 28.3091 8.94145C29.9342 7.61953 31.4726 6.72004 32.7565 6.30379C33.3984 6.09567 33.9601 6.00537 34.4491 6.01874ZM15.4806 6.0246C15.9725 6.01087 16.5353 6.10092 17.1791 6.30965C18.4667 6.7271 20.0078 7.62619 21.6342 8.94925C22.2584 9.45702 22.8964 10.0453 23.5397 10.6712C22.2887 12.0244 21.0468 13.5504 19.8401 15.2261C17.4623 15.4446 15.231 15.8118 13.1964 16.3058C13.0101 15.5411 12.845 14.7944 12.7318 14.0898C12.3992 12.0197 12.3909 10.236 12.6732 8.91216C12.9555 7.58833 13.4874 6.78022 14.2077 6.36431C14.5679 6.15636 14.9887 6.03833 15.4806 6.0246ZM24.9668 12.1394C25.7811 13.0256 26.5955 13.9953 27.4033 15.0387C26.6096 15.0056 25.8062 14.986 24.9902 14.986C24.158 14.986 23.3393 15.0062 22.5303 15.0407C23.3383 13.9964 24.1523 13.0262 24.9668 12.1394ZM24.9902 17.0047C26.3496 17.0047 27.6744 17.0606 28.9632 17.1551C29.8499 18.4287 30.7165 19.78 31.5421 21.2101C32.2677 22.4668 32.9242 23.7215 33.5218 24.9607C32.9179 26.2162 32.2503 27.4879 31.5148 28.7619C30.8674 29.8834 30.1912 30.9485 29.5039 31.9755C28.0483 32.0972 26.5399 32.1649 24.9902 32.1649C23.4033 32.1649 21.861 32.0932 20.3731 31.9658C19.6972 30.9535 19.0325 29.9045 18.3954 28.801C17.6615 27.5299 16.9972 26.2605 16.3943 25.0075C16.9997 23.7475 17.667 22.471 18.4051 21.1926C19.2265 19.7699 20.0905 18.4265 20.9724 17.159C22.275 17.0624 23.6153 17.0047 24.9902 17.0047ZM31.5363 17.405C33.1841 17.6106 34.7312 17.896 36.171 18.2386C35.7438 19.6392 35.2175 21.1022 34.5799 22.612C34.1659 21.8138 33.7371 21.013 33.2738 20.2105C32.7124 19.238 32.1276 18.3109 31.5363 17.405ZM18.3368 17.4206C17.758 18.3096 17.1884 19.2187 16.6383 20.1715C16.1691 20.9843 15.7314 21.7959 15.3127 22.6041C14.6806 21.1035 14.1575 19.6488 13.7333 18.2562C15.1624 17.913 16.7005 17.6285 18.3368 17.4206ZM38.1487 18.7697C38.8573 18.9841 39.5416 19.2078 40.1693 19.453C42.0787 20.1988 43.589 21.0819 44.5679 21.9852C45.5467 22.8886 45.9716 23.7501 45.9716 24.5858C45.9716 25.4215 45.5467 26.283 44.5679 27.1864C43.589 28.0897 42.0787 28.9728 40.1693 29.7186C39.4718 29.991 38.7054 30.2381 37.9086 30.4722C37.3402 28.7141 36.6147 26.8799 35.7513 25.0075C36.744 22.8578 37.546 20.7618 38.1487 18.7697ZM11.7986 18.7794C12.3944 20.7517 13.1861 22.8268 14.1648 24.9548C13.2957 26.8381 12.5666 28.6827 11.9958 30.4507C11.227 30.2228 10.4866 29.9824 9.81113 29.7186C7.90179 28.9728 6.39148 28.0897 5.41261 27.1864C4.43374 26.283 4.00891 25.4215 4.00891 24.5858C4.00891 23.7501 4.43374 22.8886 5.41261 21.9852C6.39148 21.0819 7.90179 20.1988 9.81113 19.453C10.4292 19.2116 11.102 18.991 11.7986 18.7794ZM24.9902 19.9938C22.2418 19.9938 19.9924 22.2434 19.9924 24.9919C19.9924 27.7404 22.2418 29.99 24.9902 29.99C27.7386 29.99 29.9881 27.7404 29.9881 24.9919C29.9881 22.2434 27.7386 19.9938 24.9902 19.9938ZM15.3361 27.3562C15.7567 28.1685 16.194 28.9836 16.6656 29.8006C17.0347 30.4398 17.4115 31.0619 17.7941 31.6729C16.4517 31.4868 15.1756 31.2511 13.9773 30.972C14.3584 29.8048 14.8143 28.5933 15.3361 27.3562ZM34.6053 27.3562C35.1292 28.5962 35.5853 29.8097 35.968 30.9798C34.7659 31.2586 33.4859 31.4934 32.1395 31.6788C32.5271 31.0603 32.9099 30.4304 33.2836 29.783C33.7518 28.9721 34.1874 28.1626 34.6053 27.3562ZM13.4014 32.9127C15.2105 33.3412 17.1713 33.6705 19.2505 33.8849C20.6385 35.8925 22.0844 37.6965 23.5397 39.2735C22.8889 39.908 22.244 40.5035 21.6128 41.017C19.9877 42.3389 18.4473 43.2364 17.1635 43.6527C15.8796 44.0689 14.9215 44.014 14.2077 43.6019C13.494 43.1898 12.9683 42.3877 12.6869 41.0677C12.4054 39.7477 12.4132 37.9662 12.7454 35.8978C12.8962 34.9595 13.1214 33.9548 13.4014 32.9127ZM36.5459 32.9205C36.8282 33.969 37.0541 34.9774 37.2058 35.9213C37.5383 37.9914 37.5466 39.7751 37.2643 41.099C36.982 42.4228 36.4541 43.2328 35.7337 43.6488C35.0134 44.0647 34.046 44.1189 32.7584 43.7015C31.4709 43.284 29.9297 42.3849 28.3033 41.0619C27.6675 40.5447 27.0181 39.9444 26.3627 39.3047C27.8277 37.7216 29.2839 35.9084 30.6812 33.8888C32.7656 33.6758 34.7319 33.3485 36.5459 32.9205ZM21.8588 34.0899C22.8851 34.1459 23.9249 34.1837 24.9902 34.1837C26.0203 34.1837 27.0264 34.1481 28.0202 34.0958C27.0043 35.4664 25.9689 36.7125 24.9375 37.8346C23.9068 36.7101 22.8733 35.4618 21.8588 34.0899Z" fill="#23D997"/>
</svg>
