<svg width="50" height="50" viewBox="0 0 50 50" fill="none" xmlns="http://www.w3.org/2000/svg">
<path d="M24.9725 1.56402C24.9643 1.5643 24.9563 1.56654 24.9481 1.56708C24.9279 1.56839 24.9088 1.57484 24.8886 1.57776C24.8119 1.58879 24.7386 1.61114 24.6674 1.6449C24.6551 1.65069 24.6413 1.64908 24.6292 1.65558L4.31671 12.5931C4.25167 12.6283 4.19417 12.6725 4.14276 12.7228C4.13206 12.7332 4.12539 12.7468 4.1153 12.7579C4.06425 12.8138 4.02304 12.8762 3.99017 12.944C3.97905 12.9669 3.96855 12.9887 3.95966 13.0127C3.92825 13.0974 3.9065 13.1851 3.90625 13.2782V13.2797V13.2812V36.7187C3.90625 36.7877 3.91638 36.8568 3.93372 36.9217C3.95714 37.0085 3.99871 37.0879 4.04968 37.1613C4.0616 37.1785 4.07446 37.1937 4.08783 37.2101C4.14476 37.2796 4.20954 37.3429 4.28925 37.3901C4.29065 37.391 4.29242 37.3908 4.29382 37.3917C4.29512 37.3924 4.29557 37.394 4.29688 37.3947L24.6002 49.1089C24.6012 49.1095 24.6023 49.1098 24.6033 49.1104C24.6043 49.111 24.6053 49.1114 24.6063 49.1119L24.6094 49.1135C24.6447 49.1338 24.6824 49.1449 24.7192 49.1592C24.7452 49.1693 24.7703 49.1841 24.7971 49.1913H24.7986C24.8651 49.2091 24.9314 49.2187 24.9985 49.2187H25C25.0663 49.2187 25.1336 49.2098 25.1984 49.1928C25.2116 49.1893 25.2235 49.1817 25.2365 49.1776C25.2851 49.162 25.3342 49.1449 25.3799 49.1196L46.4737 37.4008C46.477 37.399 46.4781 37.3951 46.4813 37.3932C46.4886 37.389 46.4971 37.3884 46.5042 37.384C46.576 37.3394 46.636 37.2808 46.6888 37.2177C46.7025 37.2014 46.7133 37.1847 46.7255 37.1674C46.772 37.1019 46.8092 37.032 46.8338 36.9553C46.837 36.9453 46.8417 36.9364 46.8445 36.9263C46.863 36.8594 46.875 36.7901 46.875 36.7187V13.2812C46.875 13.2758 46.8721 13.2714 46.8719 13.266C46.8699 13.1798 46.8501 13.0975 46.8216 13.0188C46.8116 12.9911 46.801 12.9656 46.788 12.9395C46.7564 12.8753 46.7169 12.8173 46.669 12.764C46.6572 12.7509 46.6496 12.7351 46.637 12.7228C46.583 12.6703 46.5228 12.6242 46.4539 12.5885L25.3601 1.651C25.3279 1.63426 25.2931 1.62631 25.2594 1.61438C25.2402 1.60754 25.2226 1.59987 25.2029 1.59454C25.1275 1.57418 25.0498 1.5614 24.9725 1.56402ZM25.7812 3.62854L44.3726 13.2675L36.731 17.0898L25.7812 11.2503V3.62854ZM24.2188 3.65295V11.2503L13.2858 17.0807L6.32782 13.2858L24.2188 3.65295ZM25 12.6053L35.0586 17.9687L25 23.3322L14.9414 17.9687L25 12.6053ZM45.3125 14.5462V35.4553L37.5 31.5491V18.4509L45.3125 14.5462ZM5.46875 14.5981L12.5 18.4326V20.3125C12.5 20.7445 12.85 21.0937 13.2812 21.0937C13.7125 21.0937 14.0625 20.7445 14.0625 20.3125V19.2718L24.2188 24.6872V36.9781L14.0625 31.5628V29.6875C14.0625 29.2555 13.7125 28.9062 13.2812 28.9062C12.85 28.9062 12.5 29.2555 12.5 29.6875V31.5674L5.46875 35.4019V14.5981ZM35.9375 19.2718V32.0312C35.9375 32.0703 35.9533 32.1036 35.9589 32.1411C35.9671 32.1973 35.9724 32.2529 35.9924 32.3059C36.0103 32.353 36.0395 32.3918 36.0657 32.4341C36.092 32.4771 36.1149 32.5201 36.1496 32.5577C36.1874 32.5986 36.2336 32.6279 36.2793 32.6599C36.3109 32.6821 36.3338 32.7123 36.3693 32.7301L44.4199 36.7554L25.7812 47.11V38.2812V24.6872L35.9375 19.2718ZM13.2812 22.6562C12.85 22.6562 12.5 23.0055 12.5 23.4375V26.5625C12.5 26.9945 12.85 27.3437 13.2812 27.3437C13.7125 27.3437 14.0625 26.9945 14.0625 26.5625V23.4375C14.0625 23.0055 13.7125 22.6562 13.2812 22.6562ZM33.6777 31.9519C33.5765 31.961 33.4758 31.991 33.3801 32.0419C32.9997 32.2451 32.8543 32.7174 33.0582 33.0978L33.7936 34.4772C33.9343 34.7405 34.2044 34.8907 34.4833 34.8907C34.6068 34.8907 34.7331 34.8617 34.8511 34.7992C35.2315 34.5961 35.3754 34.1222 35.1715 33.7418L34.436 32.3624C34.2837 32.0776 33.9812 31.9245 33.6777 31.9519ZM13.2843 32.9193L24.2188 38.7497V47.0856L6.28204 36.7371L13.2843 32.9193ZM30.4214 33.6884C30.3203 33.6973 30.2194 33.7263 30.1239 33.7769C29.7434 33.98 29.5988 34.4538 29.8019 34.8343L30.5374 36.2137C30.6788 36.477 30.9497 36.6272 31.2286 36.6272C31.3521 36.6272 31.4769 36.5974 31.5948 36.5356C31.9753 36.3325 32.1199 35.8587 31.9168 35.4782L31.1813 34.0988C31.0284 33.814 30.7249 33.6614 30.4214 33.6884ZM27.1667 35.4233C27.0655 35.4324 26.9649 35.4623 26.8692 35.5133C26.488 35.7164 26.3441 36.1903 26.5472 36.5707L27.2827 37.9486C27.4233 38.2119 27.6935 38.3621 27.9724 38.3621C28.0958 38.3621 28.2222 38.3331 28.3401 38.2706C28.7206 38.0674 28.8645 37.5936 28.6606 37.2131L27.9251 35.8337C27.7734 35.549 27.4704 35.3959 27.1667 35.4233Z" fill="#23D997"/>
</svg>
