<svg width="20" height="12" viewBox="0 0 30 19" fill="none" xmlns="http://www.w3.org/2000/svg">
<path d="M0.479516 16.6329L1.46221 17.5894C1.77148 17.8881 2.18294 18.0527 2.6227 18.0527C3.06222 18.0527 3.47417 17.8881 3.78345 17.5894L14.9933 6.75274L26.2161 17.6014C26.5248 17.9001 26.9368 18.0645 27.3763 18.0645C27.8158 18.0645 28.228 17.9001 28.5371 17.6014L29.52 16.6508C30.16 16.0326 30.16 15.0256 29.52 14.4074L16.1579 1.44428C15.8492 1.14579 15.4377 0.935482 14.9943 0.935482H14.9891C14.5494 0.935482 14.1379 1.14603 13.8291 1.44428L0.479516 14.3723C0.170245 14.6707 0.000487096 15.0805 -7.12906e-07 15.5054C-7.12906e-07 15.9305 0.170245 16.3346 0.479516 16.6329Z" fill="white"/>
</svg>
