<svg width="48" height="50" viewBox="0 0 48 50" fill="none" xmlns="http://www.w3.org/2000/svg">
<g clip-path="url(#clip0)">
<path fill-rule="evenodd" clip-rule="evenodd" d="M36.6471 41.5789L21 46L5.35294 41.5789L2 4H40C38.8824 16.5249 37.7647 29.0541 36.6471 41.5789ZM37.5595 6.21053H4.44049L7.44416 39.8692L21 43.7031L34.5558 39.8692L37.5595 6.21053ZM11.8362 28.3158H16.3068L16.4159 31.0789L21 32.6246L25.5841 31.0789L25.9159 26.1053H16.0841L15.8571 21.6842H26.1429L26.4747 17.2632H11.0547L10.7185 12.8421H31.1723L30.6135 21.6842L29.8277 34.3947L21 37.2701L12.1723 34.3947L11.8362 28.3158Z" fill="#23D997"/>
</g>
<defs>
<clipPath id="clip0">
<rect width="48" height="50" fill="white"/>
</clipPath>
</defs>
</svg>
